#VRML V2.0 utf8

Shape {
  appearance Appearance {
    material Material {
      diffuseColor 0.1490 0.1490 0.1490
      specularColor 0.0745 0.0745 0.0745
      ambientIntensity 0.2
      transparency 0.0000
      shininess 0.5
    }
  }
  geometry IndexedFaceSet {
    ccw TRUE
    solid FALSE
    coord DEF co Coordinate {
      point [
        0.374016 0.492126 0.366142,
        0.098425 0.492126 0.118110,
        0.374016 0.492126 0.618110,
        0.098425 0.492126 0.866142,
        0.196850 0.492126 0.984252,
        0.803150 0.492126 0.984252,
        0.625984 0.492126 0.618110,
        0.901575 0.492126 0.866142,
        0.625984 0.492126 0.366142,
        0.901575 0.492126 0.118110,
        0.803150 0.492126 0.000000,
        0.196850 0.492126 0.000000,
        -0.625984 0.492126 0.366142,
        -0.901575 0.492126 0.118110,
        -0.625984 0.492126 0.618110,
        -0.901575 0.492126 0.866142,
        -0.803150 0.492126 0.984252,
        -0.196850 0.492126 0.984252,
        -0.374016 0.492126 0.618110,
        -0.098425 0.492126 0.866142,
        -0.374016 0.492126 0.366142,
        -0.098425 0.492126 0.118110,
        -0.196850 0.492126 0.000000,
        -0.803150 0.492126 0.000000,
        0.625984 -0.492126 0.366142,
        0.901575 -0.492126 0.118110,
        0.625984 -0.492126 0.618110,
        0.901575 -0.492126 0.866142,
        0.803150 -0.492126 0.984252,
        0.196850 -0.492126 0.984252,
        0.374016 -0.492126 0.618110,
        0.098425 -0.492126 0.866142,
        0.374016 -0.492126 0.366142,
        0.098425 -0.492126 0.118110,
        0.196850 -0.492126 0.000000,
        0.803150 -0.492126 0.000000,
        -0.374016 -0.492126 0.366142,
        -0.098425 -0.492126 0.118110,
        -0.374016 -0.492126 0.618110,
        -0.098425 -0.492126 0.866142,
        -0.196850 -0.492126 0.984252,
        -0.803150 -0.492126 0.984252,
        -0.625984 -0.492126 0.618110,
        -0.901575 -0.492126 0.866142,
        -0.625984 -0.492126 0.366142,
        -0.901575 -0.492126 0.118110,
        -0.803150 -0.492126 0.000000,
        -0.196850 -0.492126 0.000000,
        -1.625984 0.492126 0.366142,
        -1.901575 0.492126 0.118110,
        -1.625984 0.492126 0.618110,
        -1.901575 0.492126 0.866142,
        -1.803150 0.492126 0.984252,
        -1.196850 0.492126 0.984252,
        -1.374016 0.492126 0.618110,
        -1.098425 0.492126 0.866142,
        -1.374016 0.492126 0.366142,
        -1.098425 0.492126 0.118110,
        -1.196850 0.492126 0.000000,
        -1.803150 0.492126 0.000000,
        -1.374016 -0.492126 0.366142,
        -1.098425 -0.492126 0.118110,
        -1.374016 -0.492126 0.618110,
        -1.098425 -0.492126 0.866142,
        -1.196850 -0.492126 0.984252,
        -1.803150 -0.492126 0.984252,
        -1.625984 -0.492126 0.618110,
        -1.901575 -0.492126 0.866142,
        -1.625984 -0.492126 0.366142,
        -1.901575 -0.492126 0.118110,
        -1.803150 -0.492126 0.000000,
        -1.196850 -0.492126 0.000000,
        -0.326646 -0.171736 0.000000,
        -0.326646 -0.246973 0.000000,
        -0.332693 -0.218153 0.000000,
        -0.486145 -0.359501 0.000000,
        -0.486145 -0.434203 0.000000,
        -0.342682 -0.202035 0.000000,
        -0.351388 -0.192845 0.000000,
        -0.357562 -0.187888 0.000000,
        -0.326646 -0.492126 0.000000,
        -0.328665 -0.434203 0.000000,
        -0.328665 -0.420070 0.000000,
        -0.349415 -0.292393 0.000000,
        -0.371404 -0.316805 0.000000,
        -0.340779 -0.257480 0.000000,
        -0.401240 -0.326946 0.000000,
        -0.407563 -0.327197 0.000000,
        -0.440017 -0.319039 0.000000,
        -0.462826 -0.297241 0.000000,
        -0.473534 -0.266252 0.000000,
        -0.457154 -0.187888 0.000000,
        -0.481979 -0.218105 0.000000,
        -0.803150 -0.171736 0.000000,
        -0.488089 -0.236011 0.000000,
        -0.366254 -0.331189 0.000000,
        -0.406491 -0.341330 0.000000,
        -0.469994 -0.420070 0.000000,
        -0.436435 -0.336543 0.000000,
        -0.469994 -0.359501 0.000000,
        -0.462643 -0.321361 0.000000,
        -0.467957 -0.316370 0.000000,
        -0.489899 -0.248513 0.000000,
        -0.490183 -0.256407 0.000000,
        -0.483780 -0.292076 0.000000,
        -0.475405 -0.307402 0.000000,
        -0.326646 -0.269111 0.000000,
        -0.324874 -0.263560 0.000000,
        -0.196850 -0.171736 0.000000,
        -0.324627 -0.256596 0.000000,
        -0.337862 -0.304255 0.000000,
        -0.449078 0.081810 0.000000,
        -0.473225 0.061800 0.000000,
        -0.486145 0.110921 0.000000,
        -0.486145 -0.066749 0.000000,
        -0.486145 -0.155584 0.000000,
        -0.447785 -0.200254 0.000000,
        -0.367026 -0.200254 0.000000,
        -0.467359 -0.225381 0.000000,
        -0.347239 -0.225769 0.000000,
        -0.474031 -0.256502 0.000000,
        -0.342463 -0.240641 0.000000,
        -0.341028 -0.250965 0.000000,
        -0.409393 0.090731 0.000000,
        -0.486145 0.244962 0.000000,
        -0.486145 0.260326 0.000000,
        -0.326646 0.492126 0.000000,
        -0.435671 0.221681 0.000000,
        -0.435671 0.150291 0.000000,
        -0.486145 0.126347 0.000000,
        -0.344817 -0.141451 0.000000,
        -0.393272 -0.141451 0.000000,
        -0.344817 -0.066749 0.000000,
        -0.393272 -0.066749 0.000000,
        -0.384670 0.087787 0.000000,
        -0.328665 0.185623 0.000000,
        -0.353434 0.071662 0.000000,
        -0.484880 0.030522 0.000000,
        -0.486145 0.010319 0.000000,
        -0.486145 -0.038483 0.000000,
        -0.469994 -0.066749 0.000000,
        -0.409424 -0.066749 0.000000,
        -0.469994 -0.141451 0.000000,
        -0.409424 -0.141451 0.000000,
        -0.328665 -0.006685 0.000000,
        -0.329628 0.018542 0.000000,
        -0.334343 0.043285 0.000000,
        -0.328665 -0.038483 0.000000,
        -0.328665 0.187642 0.000000,
        -0.328665 -0.155584 0.000000,
        -0.328665 -0.066749 0.000000,
        1.196850 0.492126 0.984252,
        1.803150 0.492126 0.984252,
        1.901575 0.492126 0.866142,
        1.374016 0.492126 0.366142,
        1.098425 0.492126 0.118110,
        1.374016 0.492126 0.618110,
        1.098425 0.492126 0.866142,
        1.625984 0.492126 0.618110,
        1.625984 0.492126 0.366142,
        1.901575 0.492126 0.118110,
        1.803150 0.492126 0.000000,
        1.196850 0.492126 0.000000,
        1.625984 -0.492126 0.366142,
        1.901575 -0.492126 0.118110,
        1.625984 -0.492126 0.618110,
        1.901575 -0.492126 0.866142,
        1.803150 -0.492126 0.984252,
        1.196850 -0.492126 0.984252,
        1.374016 -0.492126 0.618110,
        1.098425 -0.492126 0.866142,
        1.374016 -0.492126 0.366142,
        1.098425 -0.492126 0.118110,
        1.196850 -0.492126 0.000000,
        1.803150 -0.492126 0.000000,
        2.000000 0.374016 0.748031,
        2.000000 -0.374016 0.748031,
        2.000000 0.374016 0.236220,
        2.000000 -0.374016 0.236220,
        -2.000000 -0.374016 0.748031,
        -2.000000 0.374016 0.748031,
        -2.000000 -0.374016 0.236220,
        -2.000000 0.374016 0.236220,
        -1.000000 0.374016 0.236220,
        -1.000000 -0.374016 0.236220,
        -1.000000 -0.374016 0.748031,
        -1.000000 0.374016 0.748031,
      ]
    }
    coordIndex [
      0, 1, 2, -1,
      2, 1, 3, -1,
      3, 4, 2, -1,
      2, 4, 5, -1,
      2, 5, 6, -1,
      6, 5, 7, -1,
      6, 7, 8, -1,
      8, 7, 9, -1,
      8, 9, 0, -1,
      0, 9, 10, -1,
      0, 10, 1, -1,
      1, 10, 11, -1,
      12, 13, 14, -1,
      14, 13, 15, -1,
      15, 16, 14, -1,
      14, 16, 17, -1,
      14, 17, 18, -1,
      18, 17, 19, -1,
      18, 19, 20, -1,
      20, 19, 21, -1,
      20, 21, 12, -1,
      12, 21, 22, -1,
      12, 22, 13, -1,
      13, 22, 23, -1,
      24, 25, 26, -1,
      26, 25, 27, -1,
      27, 28, 26, -1,
      26, 28, 29, -1,
      26, 29, 30, -1,
      30, 29, 31, -1,
      30, 31, 32, -1,
      32, 31, 33, -1,
      32, 33, 24, -1,
      24, 33, 34, -1,
      24, 34, 25, -1,
      25, 34, 35, -1,
      36, 37, 38, -1,
      38, 37, 39, -1,
      39, 40, 38, -1,
      38, 40, 41, -1,
      38, 41, 42, -1,
      42, 41, 43, -1,
      42, 43, 44, -1,
      44, 43, 45, -1,
      44, 45, 36, -1,
      36, 45, 46, -1,
      36, 46, 37, -1,
      37, 46, 47, -1,
      48, 49, 50, -1,
      50, 49, 51, -1,
      51, 52, 50, -1,
      50, 52, 53, -1,
      50, 53, 54, -1,
      54, 53, 55, -1,
      54, 55, 56, -1,
      56, 55, 57, -1,
      56, 57, 48, -1,
      48, 57, 58, -1,
      48, 58, 49, -1,
      49, 58, 59, -1,
      60, 61, 62, -1,
      62, 61, 63, -1,
      63, 64, 62, -1,
      62, 64, 65, -1,
      62, 65, 66, -1,
      66, 65, 67, -1,
      66, 67, 68, -1,
      68, 67, 69, -1,
      68, 69, 60, -1,
      60, 69, 70, -1,
      60, 70, 61, -1,
      61, 70, 71, -1,
      72, 73, 74, -1,
      75, 76, 46, -1,
      74, 77, 72, -1,
      72, 77, 78, -1,
      72, 78, 79, -1,
      46, 76, 80, -1,
      80, 76, 81, -1,
      80, 81, 82, -1,
      83, 84, 85, -1,
      85, 84, 86, -1,
      85, 86, 87, -1,
      87, 88, 85, -1,
      85, 88, 89, -1,
      85, 89, 90, -1,
      91, 92, 93, -1,
      93, 92, 94, -1,
      95, 82, 96, -1,
      96, 82, 97, -1,
      96, 97, 98, -1,
      98, 97, 99, -1,
      98, 99, 100, -1,
      100, 99, 101, -1,
      94, 102, 93, -1,
      93, 102, 103, -1,
      93, 103, 104, -1,
      46, 93, 75, -1,
      75, 93, 104, -1,
      75, 104, 99, -1,
      99, 104, 105, -1,
      99, 105, 101, -1,
      106, 107, 108, -1,
      108, 107, 109, -1,
      95, 110, 82, -1,
      82, 110, 106, -1,
      82, 106, 80, -1,
      80, 106, 108, -1,
      80, 108, 47, -1,
      111, 112, 113, -1,
      114, 115, 93, -1,
      93, 115, 72, -1,
      93, 72, 91, -1,
      91, 72, 79, -1,
      91, 79, 116, -1,
      116, 79, 117, -1,
      116, 117, 118, -1,
      118, 117, 119, -1,
      118, 119, 120, -1,
      120, 119, 121, -1,
      120, 121, 90, -1,
      90, 121, 122, -1,
      90, 122, 85, -1,
      111, 113, 123, -1,
      124, 23, 125, -1,
      125, 23, 126, -1,
      127, 128, 124, -1,
      124, 128, 129, -1,
      124, 129, 23, -1,
      23, 129, 113, -1,
      130, 131, 132, -1,
      132, 131, 133, -1,
      123, 113, 134, -1,
      134, 113, 135, -1,
      134, 135, 136, -1,
      112, 137, 113, -1,
      113, 137, 138, -1,
      113, 138, 23, -1,
      23, 138, 139, -1,
      93, 23, 114, -1,
      114, 23, 139, -1,
      114, 139, 140, -1,
      140, 139, 141, -1,
      140, 141, 142, -1,
      142, 141, 143, -1,
      144, 145, 135, -1,
      135, 145, 146, -1,
      135, 146, 136, -1,
      147, 144, 72, -1,
      72, 144, 135, -1,
      72, 135, 126, -1,
      126, 135, 148, -1,
      126, 148, 125, -1,
      115, 149, 72, -1,
      72, 149, 150, -1,
      72, 150, 147, -1,
      147, 150, 132, -1,
      147, 132, 139, -1,
      139, 132, 133, -1,
      139, 133, 141, -1,
      126, 22, 72, -1,
      72, 22, 108, -1,
      72, 108, 73, -1,
      73, 108, 109, -1,
      151, 152, 153, -1,
      154, 155, 156, -1,
      156, 155, 157, -1,
      156, 157, 158, -1,
      157, 151, 158, -1,
      158, 151, 153, -1,
      158, 153, 159, -1,
      159, 153, 160, -1,
      159, 160, 154, -1,
      154, 160, 161, -1,
      154, 161, 155, -1,
      155, 161, 162, -1,
      163, 164, 165, -1,
      165, 164, 166, -1,
      166, 167, 165, -1,
      165, 167, 168, -1,
      165, 168, 169, -1,
      169, 168, 170, -1,
      169, 170, 171, -1,
      171, 170, 172, -1,
      171, 172, 163, -1,
      163, 172, 173, -1,
      163, 173, 164, -1,
      164, 173, 174, -1,
      10, 35, 11, -1,
      11, 35, 34, -1,
      161, 174, 162, -1,
      162, 174, 173, -1,
      17, 16, 40, -1,
      40, 16, 41, -1,
      5, 4, 28, -1,
      28, 4, 29, -1,
      53, 52, 64, -1,
      64, 52, 65, -1,
      175, 176, 177, -1,
      177, 176, 178, -1,
      179, 180, 181, -1,
      181, 180, 182, -1,
      152, 151, 167, -1,
      167, 151, 168, -1,
      58, 71, 59, -1,
      59, 71, 70, -1,
      71, 58, 57, -1,
      183, 184, 57, -1,
      57, 184, 61, -1,
      57, 61, 71, -1,
      59, 70, 69, -1,
      181, 182, 69, -1,
      69, 182, 49, -1,
      69, 49, 59, -1,
      65, 52, 51, -1,
      180, 179, 51, -1,
      51, 179, 67, -1,
      51, 67, 65, -1,
      185, 186, 63, -1,
      63, 186, 55, -1,
      63, 55, 64, -1,
      64, 55, 53, -1,
    ]
  }
}

Shape {
  appearance Appearance {
    material Material {
      diffuseColor 0.7529 0.7529 0.7529
      specularColor 0.3765 0.3765 0.3765
      ambientIntensity 0.2
      transparency 0.0000
      shininess 0.5
    }
  }
  geometry IndexedFaceSet {
    ccw TRUE
    solid FALSE
    coord DEF co Coordinate {
      point [
        -1.625984 0.492126 0.366142,
        -1.625984 0.492126 0.618110,
        -1.374016 0.492126 0.618110,
        -1.374016 0.492126 0.366142,
        -1.374016 -0.492126 0.366142,
        -1.374016 -0.492126 0.618110,
        -1.625984 -0.492126 0.618110,
        -1.625984 -0.492126 0.366142,
        -1.625984 -0.909449 0.366142,
        -1.374016 -0.909449 0.366142,
        -1.625984 -0.939581 0.360148,
        -1.374016 -0.939581 0.360148,
        -1.625984 -0.965126 0.343079,
        -1.374016 -0.965126 0.343079,
        -1.625984 -0.982195 0.317534,
        -1.374016 -0.982195 0.317534,
        -1.625984 -0.988189 0.287402,
        -1.374016 -0.988189 0.287402,
        -1.625984 -0.988189 -1.122047,
        -1.374016 -0.988189 -1.122047,
        -1.625984 -1.066929 -1.200787,
        -1.374016 -1.066929 -1.200787,
        -1.625984 -1.161417 -1.200787,
        -1.374016 -1.161417 -1.200787,
        -1.625984 -1.240157 -1.122047,
        -1.374016 -1.240157 -1.122047,
        -1.625984 -1.240157 0.539370,
        -1.374016 -1.240157 0.539370,
        -1.374016 -1.234164 0.569503,
        -1.625984 -1.234164 0.569503,
        -1.374016 -1.217095 0.595048,
        -1.625984 -1.217095 0.595048,
        -1.374016 -1.191550 0.612117,
        -1.625984 -1.191550 0.612117,
        -1.374016 -1.161417 0.618110,
        -1.625984 -1.161417 0.618110,
        -1.374016 2.854331 0.618110,
        -1.625984 2.854331 0.618110,
        -1.625984 2.854331 0.366142,
        -1.374016 2.854331 0.366142,
        -1.625984 2.933071 0.444882,
        -1.625984 2.933071 0.539370,
        -1.374016 2.933071 0.539370,
        -1.374016 2.933071 0.444882,
      ]
    }
    coordIndex [
      8, 9, 10, -1,
      10, 9, 11, -1,
      10, 11, 12, -1,
      12, 11, 13, -1,
      12, 13, 14, -1,
      14, 13, 15, -1,
      14, 15, 16, -1,
      16, 15, 17, -1,
      18, 16, 19, -1,
      19, 16, 17, -1,
      20, 18, 21, -1,
      21, 18, 19, -1,
      22, 20, 23, -1,
      23, 20, 21, -1,
      24, 22, 25, -1,
      25, 22, 23, -1,
      26, 24, 27, -1,
      27, 24, 25, -1,
      26, 27, 28, -1,
      26, 28, 29, -1,
      29, 28, 30, -1,
      29, 30, 31, -1,
      31, 30, 32, -1,
      31, 32, 33, -1,
      33, 32, 34, -1,
      33, 34, 35, -1,
      13, 28, 15, -1,
      15, 28, 27, -1,
      15, 27, 17, -1,
      4, 5, 9, -1,
      9, 5, 34, -1,
      9, 34, 11, -1,
      11, 34, 32, -1,
      11, 32, 13, -1,
      13, 32, 30, -1,
      13, 30, 28, -1,
      21, 19, 23, -1,
      23, 19, 17, -1,
      23, 17, 25, -1,
      25, 17, 27, -1,
      35, 6, 7, -1,
      7, 8, 35, -1,
      35, 8, 10, -1,
      35, 10, 33, -1,
      33, 10, 12, -1,
      20, 22, 18, -1,
      18, 22, 24, -1,
      18, 24, 16, -1,
      16, 24, 26, -1,
      16, 26, 14, -1,
      14, 26, 29, -1,
      14, 29, 12, -1,
      12, 29, 31, -1,
      12, 31, 33, -1,
      4, 9, 7, -1,
      7, 9, 8, -1,
      6, 35, 5, -1,
      5, 35, 34, -1,
      2, 36, 1, -1,
      1, 36, 37, -1,
      0, 38, 3, -1,
      3, 38, 39, -1,
      40, 38, 41, -1,
      41, 38, 0, -1,
      41, 0, 37, -1,
      37, 0, 1, -1,
      36, 2, 42, -1,
      42, 2, 3, -1,
      42, 3, 43, -1,
      43, 3, 39, -1,
      41, 37, 42, -1,
      42, 37, 36, -1,
      40, 41, 43, -1,
      43, 41, 42, -1,
      38, 40, 39, -1,
      39, 40, 43, -1,
    ]
  }
}

Shape {
  appearance Appearance {
    material Material {
      diffuseColor 0.1490 0.1490 0.1490
      specularColor 0.0745 0.0745 0.0745
      ambientIntensity 0.2
      transparency 0.0000
      shininess 0.5
    }
  }
  geometry IndexedFaceSet {
    ccw TRUE
    solid FALSE
    coord DEF co Coordinate {
      point [
        0.098425 0.492126 0.118110,
        0.098425 0.492126 0.866142,
        0.196850 0.492126 0.984252,
        0.803150 0.492126 0.984252,
        0.901575 0.492126 0.866142,
        0.901575 0.492126 0.118110,
        0.803150 0.492126 0.000000,
        0.196850 0.492126 0.000000,
        -0.901575 0.492126 0.118110,
        -0.901575 0.492126 0.866142,
        -0.803150 0.492126 0.984252,
        -0.196850 0.492126 0.984252,
        -0.098425 0.492126 0.866142,
        -0.098425 0.492126 0.118110,
        -0.196850 0.492126 0.000000,
        -0.803150 0.492126 0.000000,
        0.901575 -0.492126 0.118110,
        0.901575 -0.492126 0.866142,
        0.803150 -0.492126 0.984252,
        0.196850 -0.492126 0.984252,
        0.098425 -0.492126 0.866142,
        0.098425 -0.492126 0.118110,
        0.196850 -0.492126 0.000000,
        0.803150 -0.492126 0.000000,
        -0.098425 -0.492126 0.118110,
        -0.098425 -0.492126 0.866142,
        -0.196850 -0.492126 0.984252,
        -0.803150 -0.492126 0.984252,
        -0.901575 -0.492126 0.866142,
        -0.901575 -0.492126 0.118110,
        -0.803150 -0.492126 0.000000,
        -0.196850 -0.492126 0.000000,
        1.196850 0.492126 0.984252,
        1.803150 0.492126 0.984252,
        1.901575 0.492126 0.866142,
        1.098425 0.492126 0.118110,
        1.098425 0.492126 0.866142,
        1.901575 0.492126 0.118110,
        1.803150 0.492126 0.000000,
        1.196850 0.492126 0.000000,
        1.901575 -0.492126 0.118110,
        1.901575 -0.492126 0.866142,
        1.803150 -0.492126 0.984252,
        1.196850 -0.492126 0.984252,
        1.098425 -0.492126 0.866142,
        1.098425 -0.492126 0.118110,
        1.196850 -0.492126 0.000000,
        1.803150 -0.492126 0.000000,
        2.000000 0.374016 0.748031,
        2.000000 -0.374016 0.748031,
        2.000000 0.374016 0.236220,
        2.000000 -0.374016 0.236220,
        -1.000000 0.374016 0.236220,
        -1.000000 -0.374016 0.236220,
        -1.000000 -0.374016 0.748031,
        -1.000000 0.374016 0.748031,
        1.000000 0.374016 0.748031,
        1.000000 -0.374016 0.748031,
        -0.000000 0.374016 0.748031,
        -0.000000 -0.374016 0.748031,
        1.000000 0.374016 0.236220,
        1.000000 -0.374016 0.236220,
        -0.000000 0.374016 0.236220,
        -0.000000 -0.374016 0.236220,
      ]
    }
    coordIndex [
      27, 10, 9, -1,
      55, 54, 9, -1,
      9, 54, 28, -1,
      9, 28, 27, -1,
      56, 57, 36, -1,
      36, 57, 44, -1,
      36, 44, 32, -1,
      32, 44, 43, -1,
      58, 59, 1, -1,
      1, 59, 20, -1,
      1, 20, 2, -1,
      2, 20, 19, -1,
      11, 26, 25, -1,
      59, 58, 25, -1,
      25, 58, 12, -1,
      25, 12, 11, -1,
      3, 18, 17, -1,
      57, 56, 17, -1,
      17, 56, 4, -1,
      17, 4, 3, -1,
      49, 48, 41, -1,
      41, 48, 34, -1,
      41, 34, 42, -1,
      42, 34, 33, -1,
      47, 38, 37, -1,
      50, 51, 37, -1,
      37, 51, 40, -1,
      37, 40, 47, -1,
      23, 6, 5, -1,
      60, 61, 5, -1,
      5, 61, 16, -1,
      5, 16, 23, -1,
      31, 14, 13, -1,
      62, 63, 13, -1,
      13, 63, 24, -1,
      13, 24, 31, -1,
      7, 22, 21, -1,
      63, 62, 21, -1,
      21, 62, 0, -1,
      21, 0, 7, -1,
      39, 46, 45, -1,
      61, 60, 45, -1,
      45, 60, 35, -1,
      45, 35, 39, -1,
      15, 30, 29, -1,
      53, 52, 29, -1,
      29, 52, 8, -1,
      29, 8, 15, -1,
    ]
  }
}

Shape {
  appearance Appearance {
    material Material {
      diffuseColor 0.7529 0.7529 0.7529
      specularColor 0.3765 0.3765 0.3765
      ambientIntensity 0.2
      transparency 0.0000
      shininess 0.5
    }
  }
  geometry IndexedFaceSet {
    ccw TRUE
    solid FALSE
    coord DEF co Coordinate {
      point [
        0.374016 0.492126 0.366142,
        0.374016 0.492126 0.618110,
        0.625984 0.492126 0.618110,
        0.625984 0.492126 0.366142,
        -0.625984 0.492126 0.366142,
        -0.625984 0.492126 0.618110,
        -0.374016 0.492126 0.618110,
        -0.374016 0.492126 0.366142,
        0.625984 -0.492126 0.366142,
        0.625984 -0.492126 0.618110,
        0.374016 -0.492126 0.618110,
        0.374016 -0.492126 0.366142,
        -0.374016 -0.492126 0.366142,
        -0.374016 -0.492126 0.618110,
        -0.625984 -0.492126 0.618110,
        -0.625984 -0.492126 0.366142,
        -0.326646 -0.246973 0.000000,
        -0.332693 -0.218153 0.000000,
        -0.486145 -0.359501 0.000000,
        -0.486145 -0.434203 0.000000,
        -0.342682 -0.202035 0.000000,
        -0.351388 -0.192845 0.000000,
        -0.357562 -0.187888 0.000000,
        -0.328665 -0.434203 0.000000,
        -0.328665 -0.420070 0.000000,
        -0.349415 -0.292393 0.000000,
        -0.371404 -0.316805 0.000000,
        -0.340779 -0.257480 0.000000,
        -0.401240 -0.326946 0.000000,
        -0.407563 -0.327197 0.000000,
        -0.440017 -0.319039 0.000000,
        -0.462826 -0.297241 0.000000,
        -0.473534 -0.266252 0.000000,
        -0.457154 -0.187888 0.000000,
        -0.481979 -0.218105 0.000000,
        -0.488089 -0.236011 0.000000,
        -0.366254 -0.331189 0.000000,
        -0.406491 -0.341330 0.000000,
        -0.469994 -0.420070 0.000000,
        -0.436435 -0.336543 0.000000,
        -0.469994 -0.359501 0.000000,
        -0.462643 -0.321361 0.000000,
        -0.467957 -0.316370 0.000000,
        -0.489899 -0.248513 0.000000,
        -0.490183 -0.256407 0.000000,
        -0.483780 -0.292076 0.000000,
        -0.475405 -0.307402 0.000000,
        -0.326646 -0.269111 0.000000,
        -0.324874 -0.263560 0.000000,
        -0.324627 -0.256596 0.000000,
        -0.337862 -0.304255 0.000000,
        -0.449078 0.081810 0.000000,
        -0.473225 0.061800 0.000000,
        -0.486145 0.110921 0.000000,
        -0.486145 -0.066749 0.000000,
        -0.486145 -0.155584 0.000000,
        -0.447785 -0.200254 0.000000,
        -0.367026 -0.200254 0.000000,
        -0.467359 -0.225381 0.000000,
        -0.347239 -0.225769 0.000000,
        -0.474031 -0.256502 0.000000,
        -0.342463 -0.240641 0.000000,
        -0.341028 -0.250965 0.000000,
        -0.409393 0.090731 0.000000,
        -0.486145 0.244962 0.000000,
        -0.486145 0.260326 0.000000,
        -0.435671 0.221681 0.000000,
        -0.435671 0.150291 0.000000,
        -0.486145 0.126347 0.000000,
        -0.344817 -0.141451 0.000000,
        -0.393272 -0.141451 0.000000,
        -0.344817 -0.066749 0.000000,
        -0.393272 -0.066749 0.000000,
        -0.384670 0.087787 0.000000,
        -0.328665 0.185623 0.000000,
        -0.353434 0.071662 0.000000,
        -0.484880 0.030522 0.000000,
        -0.486145 0.010319 0.000000,
        -0.486145 -0.038483 0.000000,
        -0.469994 -0.066749 0.000000,
        -0.409424 -0.066749 0.000000,
        -0.469994 -0.141451 0.000000,
        -0.409424 -0.141451 0.000000,
        -0.328665 -0.006685 0.000000,
        -0.329628 0.018542 0.000000,
        -0.334343 0.043285 0.000000,
        -0.328665 -0.038483 0.000000,
        -0.328665 0.187642 0.000000,
        -0.328665 -0.155584 0.000000,
        -0.328665 -0.066749 0.000000,
        1.374016 0.492126 0.366142,
        1.374016 0.492126 0.618110,
        1.625984 0.492126 0.618110,
        1.625984 0.492126 0.366142,
        1.625984 -0.492126 0.366142,
        1.625984 -0.492126 0.618110,
        1.374016 -0.492126 0.618110,
        1.374016 -0.492126 0.366142,
        -0.625984 -0.909449 0.366142,
        -0.374016 -0.909449 0.366142,
        -0.625984 -0.939581 0.360148,
        -0.374016 -0.939581 0.360148,
        -0.625984 -0.965126 0.343079,
        -0.374016 -0.965126 0.343079,
        -0.625984 -0.982195 0.317534,
        -0.374016 -0.982195 0.317534,
        -0.625984 -0.988189 0.287402,
        -0.374016 -0.988189 0.287402,
        -0.625984 -0.988189 -1.122047,
        -0.374016 -0.988189 -1.122047,
        -0.625984 -1.066929 -1.200787,
        -0.374016 -1.066929 -1.200787,
        -0.625984 -1.161417 -1.200787,
        -0.374016 -1.161417 -1.200787,
        -0.625984 -1.240157 -1.122047,
        -0.374016 -1.240157 -1.122047,
        -0.625984 -1.240157 0.539370,
        -0.374016 -1.240157 0.539370,
        -0.374016 -1.234164 0.569503,
        -0.625984 -1.234164 0.569503,
        -0.374016 -1.217095 0.595048,
        -0.625984 -1.217095 0.595048,
        -0.374016 -1.191550 0.612117,
        -0.625984 -1.191550 0.612117,
        -0.374016 -1.161417 0.618110,
        -0.625984 -1.161417 0.618110,
        -0.374016 2.854331 0.618110,
        -0.625984 2.854331 0.618110,
        -0.625984 2.854331 0.366142,
        -0.374016 2.854331 0.366142,
        -0.625984 2.933071 0.444882,
        -0.625984 2.933071 0.539370,
        -0.374016 2.933071 0.539370,
        -0.374016 2.933071 0.444882,
        0.374016 -0.909449 0.366142,
        0.625984 -0.909449 0.366142,
        0.374016 -0.939581 0.360148,
        0.625984 -0.939581 0.360148,
        0.374016 -0.965126 0.343079,
        0.625984 -0.965126 0.343079,
        0.374016 -0.982195 0.317534,
        0.625984 -0.982195 0.317534,
        0.374016 -0.988189 0.287402,
        0.625984 -0.988189 0.287402,
        0.374016 -0.988189 -1.122047,
        0.625984 -0.988189 -1.122047,
        0.374016 -1.066929 -1.200787,
        0.625984 -1.066929 -1.200787,
        0.374016 -1.161417 -1.200787,
        0.625984 -1.161417 -1.200787,
        0.374016 -1.240157 -1.122047,
        0.625984 -1.240157 -1.122047,
        0.374016 -1.240157 0.539370,
        0.625984 -1.240157 0.539370,
        0.625984 -1.234164 0.569503,
        0.374016 -1.234164 0.569503,
        0.625984 -1.217095 0.595048,
        0.374016 -1.217095 0.595048,
        0.625984 -1.191550 0.612117,
        0.374016 -1.191550 0.612117,
        0.625984 -1.161417 0.618110,
        0.374016 -1.161417 0.618110,
        0.625984 2.854331 0.618110,
        0.374016 2.854331 0.618110,
        0.374016 2.854331 0.366142,
        0.625984 2.854331 0.366142,
        0.374016 2.933071 0.444882,
        0.374016 2.933071 0.539370,
        0.625984 2.933071 0.539370,
        0.625984 2.933071 0.444882,
        1.374016 -0.909449 0.366142,
        1.625984 -0.909449 0.366142,
        1.374016 -0.939581 0.360148,
        1.625984 -0.939581 0.360148,
        1.374016 -0.965126 0.343079,
        1.625984 -0.965126 0.343079,
        1.374016 -0.982195 0.317534,
        1.625984 -0.982195 0.317534,
        1.374016 -0.988189 0.287402,
        1.625984 -0.988189 0.287402,
        1.374016 -0.988189 -1.122047,
        1.625984 -0.988189 -1.122047,
        1.374016 -1.066929 -1.200787,
        1.625984 -1.066929 -1.200787,
        1.374016 -1.161417 -1.200787,
        1.625984 -1.161417 -1.200787,
        1.374016 -1.240157 -1.122047,
        1.625984 -1.240157 -1.122047,
        1.374016 -1.240157 0.539370,
        1.625984 -1.240157 0.539370,
        1.625984 -1.234164 0.569503,
        1.374016 -1.234164 0.569503,
        1.625984 -1.217095 0.595048,
        1.374016 -1.217095 0.595048,
        1.625984 -1.191550 0.612117,
        1.374016 -1.191550 0.612117,
        1.625984 -1.161417 0.618110,
        1.374016 -1.161417 0.618110,
        1.625984 2.854331 0.618110,
        1.374016 2.854331 0.618110,
        1.374016 2.854331 0.366142,
        1.625984 2.854331 0.366142,
        1.374016 2.933071 0.444882,
        1.374016 2.933071 0.539370,
        1.625984 2.933071 0.539370,
        1.625984 2.933071 0.444882,
        -0.328665 0.185623 0.039370,
        -0.328665 0.187642 0.039370,
        -0.486145 0.260326 0.039370,
        -0.486145 0.244962 0.039370,
        -0.435671 0.221681 0.039370,
        -0.435671 0.150291 0.039370,
        -0.486145 0.126347 0.039370,
        -0.486145 0.110921 0.039370,
        -0.419519 0.157957 0.039370,
        -0.359360 0.186475 0.039370,
        -0.419519 0.214236 0.039370,
        -0.419519 0.214236 0.000000,
        -0.359360 0.186475 0.000000,
        -0.419519 0.157957 0.000000,
        -0.486145 0.010319 0.039370,
        -0.486145 -0.038483 0.039370,
        -0.328665 -0.038483 0.039370,
        -0.328665 -0.006685 0.039370,
        -0.334343 0.043285 0.039370,
        -0.329628 0.018542 0.039370,
        -0.409393 0.090731 0.039370,
        -0.384670 0.087787 0.039370,
        -0.353434 0.071662 0.039370,
        -0.484880 0.030522 0.039370,
        -0.473225 0.061800 0.039370,
        -0.449078 0.081810 0.039370,
        -0.465987 0.038743 0.039370,
        -0.469356 0.016378 0.039370,
        -0.469994 -0.006274 0.039370,
        -0.469994 -0.024350 0.039370,
        -0.344817 -0.024350 0.039370,
        -0.344817 -0.013278 0.039370,
        -0.345559 0.011072 0.039370,
        -0.349233 0.035115 0.039370,
        -0.357628 0.052532 0.039370,
        -0.377912 0.069704 0.039370,
        -0.409361 0.076598 0.039370,
        -0.429087 0.074072 0.039370,
        -0.451924 0.061335 0.039370,
        -0.344817 -0.024350 0.000000,
        -0.469994 -0.024350 0.000000,
        -0.344817 -0.013278 0.000000,
        -0.345559 0.011072 0.000000,
        -0.349233 0.035115 0.000000,
        -0.357628 0.052532 0.000000,
        -0.377912 0.069704 0.000000,
        -0.409361 0.076598 0.000000,
        -0.429087 0.074072 0.000000,
        -0.451924 0.061335 0.000000,
        -0.465987 0.038743 0.000000,
        -0.469356 0.016378 0.000000,
        -0.469994 -0.006274 0.000000,
        -0.486145 -0.155584 0.039370,
        -0.328665 -0.155584 0.039370,
        -0.328665 -0.066749 0.039370,
        -0.344817 -0.066749 0.039370,
        -0.344817 -0.141451 0.039370,
        -0.393272 -0.141451 0.039370,
        -0.393272 -0.066749 0.039370,
        -0.409424 -0.066749 0.039370,
        -0.409424 -0.141451 0.039370,
        -0.469994 -0.141451 0.039370,
        -0.469994 -0.066749 0.039370,
        -0.486145 -0.066749 0.039370,
        -0.324627 -0.256596 0.039370,
        -0.332693 -0.218153 0.039370,
        -0.342682 -0.202035 0.039370,
        -0.351388 -0.192845 0.039370,
        -0.357562 -0.187888 0.039370,
        -0.367026 -0.200254 0.039370,
        -0.340779 -0.257480 0.039370,
        -0.341028 -0.250965 0.039370,
        -0.342463 -0.240641 0.039370,
        -0.347239 -0.225769 0.039370,
        -0.407563 -0.327197 0.039370,
        -0.401240 -0.326946 0.039370,
        -0.371404 -0.316805 0.039370,
        -0.349415 -0.292393 0.039370,
        -0.474031 -0.256502 0.039370,
        -0.473534 -0.266252 0.039370,
        -0.462826 -0.297241 0.039370,
        -0.440017 -0.319039 0.039370,
        -0.447785 -0.200254 0.039370,
        -0.467359 -0.225381 0.039370,
        -0.457154 -0.187888 0.039370,
        -0.490183 -0.256407 0.039370,
        -0.489899 -0.248513 0.039370,
        -0.488089 -0.236011 0.039370,
        -0.481979 -0.218105 0.039370,
        -0.462643 -0.321361 0.039370,
        -0.467957 -0.316370 0.039370,
        -0.475405 -0.307402 0.039370,
        -0.483780 -0.292076 0.039370,
        -0.406491 -0.341330 0.039370,
        -0.436435 -0.336543 0.039370,
        -0.324874 -0.263560 0.039370,
        -0.337862 -0.304255 0.039370,
        -0.366254 -0.331189 0.039370,
        -0.486145 -0.434203 0.039370,
        -0.328665 -0.434203 0.039370,
        -0.328665 -0.420070 0.039370,
        -0.469994 -0.420070 0.039370,
        -0.469994 -0.359501 0.039370,
        -0.486145 -0.359501 0.039370,
      ]
    }
    coordIndex [
      98, 99, 100, -1,
      100, 99, 101, -1,
      100, 101, 102, -1,
      102, 101, 103, -1,
      102, 103, 104, -1,
      104, 103, 105, -1,
      104, 105, 106, -1,
      106, 105, 107, -1,
      108, 106, 109, -1,
      109, 106, 107, -1,
      110, 108, 111, -1,
      111, 108, 109, -1,
      112, 110, 113, -1,
      113, 110, 111, -1,
      114, 112, 115, -1,
      115, 112, 113, -1,
      116, 114, 117, -1,
      117, 114, 115, -1,
      116, 117, 118, -1,
      116, 118, 119, -1,
      119, 118, 120, -1,
      119, 120, 121, -1,
      121, 120, 122, -1,
      121, 122, 123, -1,
      123, 122, 124, -1,
      123, 124, 125, -1,
      103, 118, 105, -1,
      105, 118, 117, -1,
      105, 117, 107, -1,
      12, 13, 99, -1,
      99, 13, 124, -1,
      99, 124, 101, -1,
      101, 124, 122, -1,
      101, 122, 103, -1,
      103, 122, 120, -1,
      103, 120, 118, -1,
      111, 109, 113, -1,
      113, 109, 107, -1,
      113, 107, 115, -1,
      115, 107, 117, -1,
      125, 14, 15, -1,
      15, 98, 125, -1,
      125, 98, 100, -1,
      125, 100, 123, -1,
      123, 100, 102, -1,
      110, 112, 108, -1,
      108, 112, 114, -1,
      108, 114, 106, -1,
      106, 114, 116, -1,
      106, 116, 104, -1,
      104, 116, 119, -1,
      104, 119, 102, -1,
      102, 119, 121, -1,
      102, 121, 123, -1,
      12, 99, 15, -1,
      15, 99, 98, -1,
      14, 125, 13, -1,
      13, 125, 124, -1,
      6, 126, 5, -1,
      5, 126, 127, -1,
      4, 128, 7, -1,
      7, 128, 129, -1,
      130, 128, 131, -1,
      131, 128, 4, -1,
      131, 4, 127, -1,
      127, 4, 5, -1,
      126, 6, 132, -1,
      132, 6, 7, -1,
      132, 7, 133, -1,
      133, 7, 129, -1,
      131, 127, 132, -1,
      132, 127, 126, -1,
      130, 131, 133, -1,
      133, 131, 132, -1,
      128, 130, 129, -1,
      129, 130, 133, -1,
      134, 135, 136, -1,
      136, 135, 137, -1,
      136, 137, 138, -1,
      138, 137, 139, -1,
      138, 139, 140, -1,
      140, 139, 141, -1,
      140, 141, 142, -1,
      142, 141, 143, -1,
      144, 142, 145, -1,
      145, 142, 143, -1,
      146, 144, 147, -1,
      147, 144, 145, -1,
      148, 146, 149, -1,
      149, 146, 147, -1,
      150, 148, 151, -1,
      151, 148, 149, -1,
      152, 150, 153, -1,
      153, 150, 151, -1,
      152, 153, 154, -1,
      152, 154, 155, -1,
      155, 154, 156, -1,
      155, 156, 157, -1,
      157, 156, 158, -1,
      157, 158, 159, -1,
      159, 158, 160, -1,
      159, 160, 161, -1,
      139, 154, 141, -1,
      141, 154, 153, -1,
      141, 153, 143, -1,
      8, 9, 135, -1,
      135, 9, 160, -1,
      135, 160, 137, -1,
      137, 160, 158, -1,
      137, 158, 139, -1,
      139, 158, 156, -1,
      139, 156, 154, -1,
      147, 145, 149, -1,
      149, 145, 143, -1,
      149, 143, 151, -1,
      151, 143, 153, -1,
      161, 10, 11, -1,
      11, 134, 161, -1,
      161, 134, 136, -1,
      161, 136, 159, -1,
      159, 136, 138, -1,
      146, 148, 144, -1,
      144, 148, 150, -1,
      144, 150, 142, -1,
      142, 150, 152, -1,
      142, 152, 140, -1,
      140, 152, 155, -1,
      140, 155, 138, -1,
      138, 155, 157, -1,
      138, 157, 159, -1,
      8, 135, 11, -1,
      11, 135, 134, -1,
      10, 161, 9, -1,
      9, 161, 160, -1,
      2, 162, 1, -1,
      1, 162, 163, -1,
      0, 164, 3, -1,
      3, 164, 165, -1,
      166, 164, 167, -1,
      167, 164, 0, -1,
      167, 0, 163, -1,
      163, 0, 1, -1,
      162, 2, 168, -1,
      168, 2, 3, -1,
      168, 3, 169, -1,
      169, 3, 165, -1,
      167, 163, 168, -1,
      168, 163, 162, -1,
      166, 167, 169, -1,
      169, 167, 168, -1,
      164, 166, 165, -1,
      165, 166, 169, -1,
      170, 171, 172, -1,
      172, 171, 173, -1,
      172, 173, 174, -1,
      174, 173, 175, -1,
      174, 175, 176, -1,
      176, 175, 177, -1,
      176, 177, 178, -1,
      178, 177, 179, -1,
      180, 178, 181, -1,
      181, 178, 179, -1,
      182, 180, 183, -1,
      183, 180, 181, -1,
      184, 182, 185, -1,
      185, 182, 183, -1,
      186, 184, 187, -1,
      187, 184, 185, -1,
      188, 186, 189, -1,
      189, 186, 187, -1,
      188, 189, 190, -1,
      188, 190, 191, -1,
      191, 190, 192, -1,
      191, 192, 193, -1,
      193, 192, 194, -1,
      193, 194, 195, -1,
      195, 194, 196, -1,
      195, 196, 197, -1,
      175, 190, 177, -1,
      177, 190, 189, -1,
      177, 189, 179, -1,
      94, 95, 171, -1,
      171, 95, 196, -1,
      171, 196, 173, -1,
      173, 196, 194, -1,
      173, 194, 175, -1,
      175, 194, 192, -1,
      175, 192, 190, -1,
      183, 181, 185, -1,
      185, 181, 179, -1,
      185, 179, 187, -1,
      187, 179, 189, -1,
      197, 96, 97, -1,
      97, 170, 197, -1,
      197, 170, 172, -1,
      197, 172, 195, -1,
      195, 172, 174, -1,
      182, 184, 180, -1,
      180, 184, 186, -1,
      180, 186, 178, -1,
      178, 186, 188, -1,
      178, 188, 176, -1,
      176, 188, 191, -1,
      176, 191, 174, -1,
      174, 191, 193, -1,
      174, 193, 195, -1,
      94, 171, 97, -1,
      97, 171, 170, -1,
      96, 197, 95, -1,
      95, 197, 196, -1,
      92, 198, 91, -1,
      91, 198, 199, -1,
      90, 200, 93, -1,
      93, 200, 201, -1,
      202, 200, 203, -1,
      203, 200, 90, -1,
      203, 90, 199, -1,
      199, 90, 91, -1,
      198, 92, 204, -1,
      204, 92, 93, -1,
      204, 93, 205, -1,
      205, 93, 201, -1,
      203, 199, 204, -1,
      204, 199, 198, -1,
      202, 203, 205, -1,
      205, 203, 204, -1,
      200, 202, 201, -1,
      201, 202, 205, -1,
      206, 207, 74, -1,
      74, 207, 87, -1,
      207, 208, 87, -1,
      87, 208, 65, -1,
      208, 209, 65, -1,
      65, 209, 64, -1,
      209, 210, 64, -1,
      64, 210, 66, -1,
      210, 211, 66, -1,
      66, 211, 67, -1,
      211, 212, 67, -1,
      67, 212, 68, -1,
      212, 213, 68, -1,
      68, 213, 53, -1,
      213, 206, 53, -1,
      53, 206, 74, -1,
      207, 206, 214, -1,
      214, 215, 207, -1,
      207, 215, 216, -1,
      207, 216, 208, -1,
      213, 212, 211, -1,
      209, 208, 210, -1,
      210, 208, 216, -1,
      210, 216, 211, -1,
      211, 216, 214, -1,
      211, 214, 213, -1,
      213, 214, 206, -1,
      216, 215, 217, -1,
      217, 215, 218, -1,
      214, 216, 219, -1,
      219, 216, 217, -1,
      215, 214, 218, -1,
      218, 214, 219, -1,
      220, 221, 77, -1,
      77, 221, 78, -1,
      221, 222, 78, -1,
      78, 222, 86, -1,
      222, 223, 86, -1,
      86, 223, 83, -1,
      224, 85, 84, -1,
      224, 84, 225, -1,
      225, 84, 83, -1,
      225, 83, 223, -1,
      226, 63, 73, -1,
      226, 73, 227, -1,
      227, 73, 75, -1,
      227, 75, 228, -1,
      228, 75, 85, -1,
      228, 85, 224, -1,
      220, 77, 76, -1,
      220, 76, 229, -1,
      229, 76, 52, -1,
      229, 52, 230, -1,
      230, 52, 51, -1,
      230, 51, 231, -1,
      231, 51, 63, -1,
      231, 63, 226, -1,
      232, 233, 220, -1,
      220, 233, 234, -1,
      220, 234, 221, -1,
      221, 234, 235, -1,
      221, 235, 222, -1,
      222, 235, 236, -1,
      222, 236, 223, -1,
      223, 236, 237, -1,
      223, 237, 225, -1,
      225, 237, 238, -1,
      225, 238, 224, -1,
      224, 238, 239, -1,
      224, 239, 228, -1,
      228, 239, 240, -1,
      228, 240, 227, -1,
      227, 240, 241, -1,
      227, 241, 226, -1,
      226, 241, 242, -1,
      226, 242, 231, -1,
      231, 242, 243, -1,
      231, 243, 230, -1,
      230, 243, 244, -1,
      230, 244, 229, -1,
      229, 244, 232, -1,
      229, 232, 220, -1,
      236, 235, 245, -1,
      245, 235, 246, -1,
      237, 236, 247, -1,
      247, 236, 245, -1,
      237, 247, 248, -1,
      237, 248, 238, -1,
      238, 248, 249, -1,
      238, 249, 239, -1,
      239, 249, 250, -1,
      239, 250, 240, -1,
      240, 250, 251, -1,
      240, 251, 241, -1,
      241, 251, 252, -1,
      241, 252, 242, -1,
      242, 252, 253, -1,
      242, 253, 243, -1,
      243, 253, 254, -1,
      243, 254, 244, -1,
      244, 254, 255, -1,
      244, 255, 232, -1,
      232, 255, 256, -1,
      232, 256, 233, -1,
      233, 256, 257, -1,
      233, 257, 234, -1,
      235, 234, 246, -1,
      246, 234, 257, -1,
      258, 259, 55, -1,
      55, 259, 88, -1,
      259, 260, 88, -1,
      88, 260, 89, -1,
      260, 261, 89, -1,
      89, 261, 71, -1,
      261, 262, 71, -1,
      71, 262, 69, -1,
      262, 263, 69, -1,
      69, 263, 70, -1,
      263, 264, 70, -1,
      70, 264, 72, -1,
      264, 265, 72, -1,
      72, 265, 80, -1,
      265, 266, 80, -1,
      80, 266, 82, -1,
      266, 267, 82, -1,
      82, 267, 81, -1,
      267, 268, 81, -1,
      81, 268, 79, -1,
      268, 269, 79, -1,
      79, 269, 54, -1,
      269, 258, 54, -1,
      54, 258, 55, -1,
      258, 269, 268, -1,
      268, 267, 258, -1,
      258, 267, 266, -1,
      258, 266, 259, -1,
      261, 260, 262, -1,
      262, 260, 259, -1,
      262, 259, 263, -1,
      263, 259, 266, -1,
      263, 266, 264, -1,
      264, 266, 265, -1,
      49, 270, 16, -1,
      16, 270, 271, -1,
      16, 271, 17, -1,
      17, 271, 272, -1,
      17, 272, 20, -1,
      20, 272, 273, -1,
      20, 273, 21, -1,
      21, 273, 274, -1,
      21, 274, 22, -1,
      274, 275, 22, -1,
      22, 275, 57, -1,
      276, 27, 62, -1,
      276, 62, 277, -1,
      277, 62, 61, -1,
      277, 61, 278, -1,
      278, 61, 59, -1,
      278, 59, 279, -1,
      279, 59, 57, -1,
      279, 57, 275, -1,
      280, 29, 28, -1,
      280, 28, 281, -1,
      281, 28, 26, -1,
      281, 26, 282, -1,
      282, 26, 25, -1,
      282, 25, 283, -1,
      283, 25, 27, -1,
      283, 27, 276, -1,
      284, 60, 32, -1,
      284, 32, 285, -1,
      285, 32, 31, -1,
      285, 31, 286, -1,
      286, 31, 30, -1,
      286, 30, 287, -1,
      287, 30, 29, -1,
      287, 29, 280, -1,
      288, 56, 58, -1,
      288, 58, 289, -1,
      289, 58, 60, -1,
      289, 60, 284, -1,
      288, 290, 56, -1,
      56, 290, 33, -1,
      291, 44, 43, -1,
      291, 43, 292, -1,
      292, 43, 35, -1,
      292, 35, 293, -1,
      293, 35, 34, -1,
      293, 34, 294, -1,
      294, 34, 33, -1,
      294, 33, 290, -1,
      295, 41, 42, -1,
      295, 42, 296, -1,
      296, 42, 46, -1,
      296, 46, 297, -1,
      297, 46, 45, -1,
      297, 45, 298, -1,
      298, 45, 44, -1,
      298, 44, 291, -1,
      299, 37, 39, -1,
      299, 39, 300, -1,
      300, 39, 41, -1,
      300, 41, 295, -1,
      270, 49, 48, -1,
      270, 48, 301, -1,
      301, 48, 47, -1,
      301, 47, 302, -1,
      47, 50, 302, -1,
      302, 50, 36, -1,
      302, 36, 303, -1,
      303, 36, 37, -1,
      303, 37, 299, -1,
      290, 288, 294, -1,
      294, 288, 289, -1,
      299, 300, 287, -1,
      287, 300, 286, -1,
      286, 300, 295, -1,
      286, 295, 296, -1,
      275, 274, 273, -1,
      275, 273, 279, -1,
      279, 273, 272, -1,
      279, 272, 271, -1,
      296, 297, 286, -1,
      286, 297, 298, -1,
      286, 298, 285, -1,
      285, 298, 291, -1,
      285, 291, 284, -1,
      284, 291, 292, -1,
      284, 292, 289, -1,
      289, 292, 293, -1,
      289, 293, 294, -1,
      287, 280, 299, -1,
      299, 280, 281, -1,
      299, 281, 303, -1,
      303, 281, 282, -1,
      303, 282, 302, -1,
      302, 282, 283, -1,
      302, 283, 301, -1,
      301, 283, 276, -1,
      301, 276, 270, -1,
      270, 276, 277, -1,
      270, 277, 271, -1,
      271, 277, 278, -1,
      271, 278, 279, -1,
      304, 305, 19, -1,
      19, 305, 23, -1,
      305, 306, 23, -1,
      23, 306, 24, -1,
      306, 307, 24, -1,
      24, 307, 38, -1,
      307, 308, 38, -1,
      38, 308, 40, -1,
      308, 309, 40, -1,
      40, 309, 18, -1,
      309, 304, 18, -1,
      18, 304, 19, -1,
      306, 305, 307, -1,
      307, 305, 304, -1,
      307, 304, 308, -1,
      308, 304, 309, -1,
    ]
  }
}

Shape {
  appearance Appearance {
    material Material {
      diffuseColor 0.1490 0.1490 0.1490
      specularColor 0.0745 0.0745 0.0745
      ambientIntensity 0.2
      transparency 0.0000
      shininess 0.5
    }
  }
  geometry IndexedFaceSet {
    ccw TRUE
    solid FALSE
    coord DEF co Coordinate {
      point [
        0.098425 0.492126 0.118110,
        0.098425 0.492126 0.866142,
        0.901575 0.492126 0.866142,
        0.901575 0.492126 0.118110,
        -0.901575 0.492126 0.118110,
        -0.901575 0.492126 0.866142,
        -0.098425 0.492126 0.866142,
        -0.098425 0.492126 0.118110,
        0.901575 -0.492126 0.118110,
        0.901575 -0.492126 0.866142,
        0.098425 -0.492126 0.866142,
        0.098425 -0.492126 0.118110,
        -0.098425 -0.492126 0.118110,
        -0.098425 -0.492126 0.866142,
        -0.901575 -0.492126 0.866142,
        -0.901575 -0.492126 0.118110,
        -1.901575 0.492126 0.118110,
        -1.901575 0.492126 0.866142,
        -1.098425 0.492126 0.866142,
        -1.098425 0.492126 0.118110,
        -1.098425 -0.492126 0.118110,
        -1.098425 -0.492126 0.866142,
        -1.901575 -0.492126 0.866142,
        -1.901575 -0.492126 0.118110,
        1.901575 0.492126 0.866142,
        1.098425 0.492126 0.118110,
        1.098425 0.492126 0.866142,
        1.901575 0.492126 0.118110,
        1.901575 -0.492126 0.118110,
        1.901575 -0.492126 0.866142,
        1.098425 -0.492126 0.866142,
        1.098425 -0.492126 0.118110,
        2.000000 0.374016 0.748031,
        2.000000 -0.374016 0.748031,
        2.000000 0.374016 0.236220,
        2.000000 -0.374016 0.236220,
        -2.000000 -0.374016 0.748031,
        -2.000000 0.374016 0.748031,
        -2.000000 -0.374016 0.236220,
        -2.000000 0.374016 0.236220,
        -1.000000 0.374016 0.236220,
        -1.000000 -0.374016 0.236220,
        -1.000000 -0.374016 0.748031,
        -1.000000 0.374016 0.748031,
        1.000000 0.374016 0.748031,
        1.000000 -0.374016 0.748031,
        -0.000000 0.374016 0.748031,
        -0.000000 -0.374016 0.748031,
        1.000000 0.374016 0.236220,
        1.000000 -0.374016 0.236220,
        -0.000000 0.374016 0.236220,
        -0.000000 -0.374016 0.236220,
        -0.419519 0.214236 0.000000,
        -0.359360 0.186475 0.000000,
        -0.419519 0.157957 0.000000,
        -0.344817 -0.024350 0.000000,
        -0.469994 -0.024350 0.000000,
        -0.344817 -0.013278 0.000000,
        -0.345559 0.011072 0.000000,
        -0.349233 0.035115 0.000000,
        -0.357628 0.052532 0.000000,
        -0.377912 0.069704 0.000000,
        -0.409361 0.076598 0.000000,
        -0.429087 0.074072 0.000000,
        -0.451924 0.061335 0.000000,
        -0.465987 0.038743 0.000000,
        -0.469356 0.016378 0.000000,
        -0.469994 -0.006274 0.000000,
      ]
    }
    coordIndex [
      52, 53, 54, -1,
      55, 56, 57, -1,
      57, 56, 67, -1,
      57, 67, 58, -1,
      58, 67, 66, -1,
      58, 66, 59, -1,
      65, 64, 66, -1,
      66, 64, 63, -1,
      66, 63, 62, -1,
      62, 61, 66, -1,
      66, 61, 60, -1,
      66, 60, 59, -1,
      43, 40, 18, -1,
      18, 40, 19, -1,
      21, 20, 42, -1,
      42, 20, 41, -1,
      17, 16, 37, -1,
      37, 16, 39, -1,
      36, 38, 22, -1,
      22, 38, 23, -1,
      15, 14, 41, -1,
      41, 14, 42, -1,
      40, 43, 4, -1,
      4, 43, 5, -1,
      49, 45, 8, -1,
      8, 45, 9, -1,
      31, 30, 49, -1,
      49, 30, 45, -1,
      3, 2, 48, -1,
      48, 2, 44, -1,
      48, 44, 25, -1,
      25, 44, 26, -1,
      51, 47, 12, -1,
      12, 47, 13, -1,
      11, 10, 51, -1,
      51, 10, 47, -1,
      7, 6, 50, -1,
      50, 6, 46, -1,
      50, 46, 0, -1,
      0, 46, 1, -1,
      35, 33, 28, -1,
      28, 33, 29, -1,
      27, 24, 34, -1,
      34, 24, 32, -1,
    ]
  }
}
